G04 #@! TF.GenerationSoftware,KiCad,Pcbnew,(5.1.0-0)*
G04 #@! TF.CreationDate,2019-08-13T01:40:22-04:00*
G04 #@! TF.ProjectId,Dell 6pin 2.0mm Front Panel Header Adapter,44656c6c-2036-4706-996e-20322e306d6d,rev?*
G04 #@! TF.SameCoordinates,Original*
G04 #@! TF.FileFunction,Legend,Top*
G04 #@! TF.FilePolarity,Positive*
%FSLAX46Y46*%
G04 Gerber Fmt 4.6, Leading zero omitted, Abs format (unit mm)*
G04 Created by KiCad (PCBNEW (5.1.0-0)) date 2019-08-13 01:40:22*
%MOMM*%
%LPD*%
G04 APERTURE LIST*
%ADD10C,0.100000*%
%ADD11C,0.150000*%
%ADD12C,0.120000*%
G04 APERTURE END LIST*
D10*
G36*
X162500000Y-100500000D02*
G01*
X160500000Y-100500000D01*
X160500000Y-100000000D01*
X162500000Y-100000000D01*
X162500000Y-100500000D01*
G37*
X162500000Y-100500000D02*
X160500000Y-100500000D01*
X160500000Y-100000000D01*
X162500000Y-100000000D01*
X162500000Y-100500000D01*
G36*
X158000000Y-97000000D02*
G01*
X156500000Y-98000000D01*
X156500000Y-96000000D01*
X158000000Y-97000000D01*
G37*
X158000000Y-97000000D02*
X156500000Y-98000000D01*
X156500000Y-96000000D01*
X158000000Y-97000000D01*
D11*
X153569166Y-93716666D02*
X153569166Y-93016666D01*
X153835833Y-93016666D01*
X153902500Y-93050000D01*
X153935833Y-93083333D01*
X153969166Y-93150000D01*
X153969166Y-93250000D01*
X153935833Y-93316666D01*
X153902500Y-93350000D01*
X153835833Y-93383333D01*
X153569166Y-93383333D01*
X154202500Y-93016666D02*
X154369166Y-93716666D01*
X154502500Y-93216666D01*
X154635833Y-93716666D01*
X154802500Y-93016666D01*
X155469166Y-93716666D02*
X155235833Y-93383333D01*
X155069166Y-93716666D02*
X155069166Y-93016666D01*
X155335833Y-93016666D01*
X155402500Y-93050000D01*
X155435833Y-93083333D01*
X155469166Y-93150000D01*
X155469166Y-93250000D01*
X155435833Y-93316666D01*
X155402500Y-93350000D01*
X155335833Y-93383333D01*
X155069166Y-93383333D01*
X156635833Y-93716666D02*
X156302500Y-93716666D01*
X156302500Y-93016666D01*
X156869166Y-93350000D02*
X157102500Y-93350000D01*
X157202500Y-93716666D02*
X156869166Y-93716666D01*
X156869166Y-93016666D01*
X157202500Y-93016666D01*
X157502500Y-93716666D02*
X157502500Y-93016666D01*
X157669166Y-93016666D01*
X157769166Y-93050000D01*
X157835833Y-93116666D01*
X157869166Y-93183333D01*
X157902500Y-93316666D01*
X157902500Y-93416666D01*
X157869166Y-93550000D01*
X157835833Y-93616666D01*
X157769166Y-93683333D01*
X157669166Y-93716666D01*
X157502500Y-93716666D01*
X158202500Y-93450000D02*
X158735833Y-93450000D01*
X158469166Y-93716666D02*
X158469166Y-93183333D01*
X164764166Y-93816666D02*
X164764166Y-93116666D01*
X165030833Y-93116666D01*
X165097500Y-93150000D01*
X165130833Y-93183333D01*
X165164166Y-93250000D01*
X165164166Y-93350000D01*
X165130833Y-93416666D01*
X165097500Y-93450000D01*
X165030833Y-93483333D01*
X164764166Y-93483333D01*
X165397500Y-93116666D02*
X165564166Y-93816666D01*
X165697500Y-93316666D01*
X165830833Y-93816666D01*
X165997500Y-93116666D01*
X166664166Y-93816666D02*
X166430833Y-93483333D01*
X166264166Y-93816666D02*
X166264166Y-93116666D01*
X166530833Y-93116666D01*
X166597500Y-93150000D01*
X166630833Y-93183333D01*
X166664166Y-93250000D01*
X166664166Y-93350000D01*
X166630833Y-93416666D01*
X166597500Y-93450000D01*
X166530833Y-93483333D01*
X166264166Y-93483333D01*
X167830833Y-93816666D02*
X167497500Y-93816666D01*
X167497500Y-93116666D01*
X168064166Y-93450000D02*
X168297500Y-93450000D01*
X168397500Y-93816666D02*
X168064166Y-93816666D01*
X168064166Y-93116666D01*
X168397500Y-93116666D01*
X168697500Y-93816666D02*
X168697500Y-93116666D01*
X168864166Y-93116666D01*
X168964166Y-93150000D01*
X169030833Y-93216666D01*
X169064166Y-93283333D01*
X169097500Y-93416666D01*
X169097500Y-93516666D01*
X169064166Y-93650000D01*
X169030833Y-93716666D01*
X168964166Y-93783333D01*
X168864166Y-93816666D01*
X168697500Y-93816666D01*
X169397500Y-93550000D02*
X169930833Y-93550000D01*
X164787976Y-91686904D02*
X164787976Y-90886904D01*
X164978452Y-90886904D01*
X165092738Y-90925000D01*
X165168928Y-91001190D01*
X165207023Y-91077380D01*
X165245119Y-91229761D01*
X165245119Y-91344047D01*
X165207023Y-91496428D01*
X165168928Y-91572619D01*
X165092738Y-91648809D01*
X164978452Y-91686904D01*
X164787976Y-91686904D01*
X165587976Y-91686904D02*
X165587976Y-90886904D01*
X165930833Y-91458333D02*
X166311785Y-91458333D01*
X165854642Y-91686904D02*
X166121309Y-90886904D01*
X166387976Y-91686904D01*
X167645119Y-91686904D02*
X167264166Y-91686904D01*
X167264166Y-90886904D01*
X167911785Y-91267857D02*
X168178452Y-91267857D01*
X168292738Y-91686904D02*
X167911785Y-91686904D01*
X167911785Y-90886904D01*
X168292738Y-90886904D01*
X168635595Y-91686904D02*
X168635595Y-90886904D01*
X168826071Y-90886904D01*
X168940357Y-90925000D01*
X169016547Y-91001190D01*
X169054642Y-91077380D01*
X169092738Y-91229761D01*
X169092738Y-91344047D01*
X169054642Y-91496428D01*
X169016547Y-91572619D01*
X168940357Y-91648809D01*
X168826071Y-91686904D01*
X168635595Y-91686904D01*
X169435595Y-91382142D02*
X170045119Y-91382142D01*
X153454880Y-91361904D02*
X153454880Y-90561904D01*
X153645357Y-90561904D01*
X153759642Y-90600000D01*
X153835833Y-90676190D01*
X153873928Y-90752380D01*
X153912023Y-90904761D01*
X153912023Y-91019047D01*
X153873928Y-91171428D01*
X153835833Y-91247619D01*
X153759642Y-91323809D01*
X153645357Y-91361904D01*
X153454880Y-91361904D01*
X154254880Y-91361904D02*
X154254880Y-90561904D01*
X154597738Y-91133333D02*
X154978690Y-91133333D01*
X154521547Y-91361904D02*
X154788214Y-90561904D01*
X155054880Y-91361904D01*
X156312023Y-91361904D02*
X155931071Y-91361904D01*
X155931071Y-90561904D01*
X156578690Y-90942857D02*
X156845357Y-90942857D01*
X156959642Y-91361904D02*
X156578690Y-91361904D01*
X156578690Y-90561904D01*
X156959642Y-90561904D01*
X157302500Y-91361904D02*
X157302500Y-90561904D01*
X157492976Y-90561904D01*
X157607261Y-90600000D01*
X157683452Y-90676190D01*
X157721547Y-90752380D01*
X157759642Y-90904761D01*
X157759642Y-91019047D01*
X157721547Y-91171428D01*
X157683452Y-91247619D01*
X157607261Y-91323809D01*
X157492976Y-91361904D01*
X157302500Y-91361904D01*
X158102500Y-91057142D02*
X158712023Y-91057142D01*
X158407261Y-91361904D02*
X158407261Y-90752380D01*
X154292976Y-88861904D02*
X154292976Y-88061904D01*
X154597738Y-88061904D01*
X154673928Y-88100000D01*
X154712023Y-88138095D01*
X154750119Y-88214285D01*
X154750119Y-88328571D01*
X154712023Y-88404761D01*
X154673928Y-88442857D01*
X154597738Y-88480952D01*
X154292976Y-88480952D01*
X155016785Y-88061904D02*
X155207261Y-88861904D01*
X155359642Y-88290476D01*
X155512023Y-88861904D01*
X155702500Y-88061904D01*
X156464404Y-88861904D02*
X156197738Y-88480952D01*
X156007261Y-88861904D02*
X156007261Y-88061904D01*
X156312023Y-88061904D01*
X156388214Y-88100000D01*
X156426309Y-88138095D01*
X156464404Y-88214285D01*
X156464404Y-88328571D01*
X156426309Y-88404761D01*
X156388214Y-88442857D01*
X156312023Y-88480952D01*
X156007261Y-88480952D01*
X157378690Y-88823809D02*
X157492976Y-88861904D01*
X157683452Y-88861904D01*
X157759642Y-88823809D01*
X157797738Y-88785714D01*
X157835833Y-88709523D01*
X157835833Y-88633333D01*
X157797738Y-88557142D01*
X157759642Y-88519047D01*
X157683452Y-88480952D01*
X157531071Y-88442857D01*
X157454880Y-88404761D01*
X157416785Y-88366666D01*
X157378690Y-88290476D01*
X157378690Y-88214285D01*
X157416785Y-88138095D01*
X157454880Y-88100000D01*
X157531071Y-88061904D01*
X157721547Y-88061904D01*
X157835833Y-88100000D01*
X158102500Y-88061904D02*
X158292976Y-88861904D01*
X158445357Y-88290476D01*
X158597738Y-88861904D01*
X158788214Y-88061904D01*
X164787976Y-89186904D02*
X164787976Y-88386904D01*
X165092738Y-88386904D01*
X165168928Y-88425000D01*
X165207023Y-88463095D01*
X165245119Y-88539285D01*
X165245119Y-88653571D01*
X165207023Y-88729761D01*
X165168928Y-88767857D01*
X165092738Y-88805952D01*
X164787976Y-88805952D01*
X165511785Y-88386904D02*
X165702261Y-89186904D01*
X165854642Y-88615476D01*
X166007023Y-89186904D01*
X166197500Y-88386904D01*
X166959404Y-89186904D02*
X166692738Y-88805952D01*
X166502261Y-89186904D02*
X166502261Y-88386904D01*
X166807023Y-88386904D01*
X166883214Y-88425000D01*
X166921309Y-88463095D01*
X166959404Y-88539285D01*
X166959404Y-88653571D01*
X166921309Y-88729761D01*
X166883214Y-88767857D01*
X166807023Y-88805952D01*
X166502261Y-88805952D01*
X167873690Y-89148809D02*
X167987976Y-89186904D01*
X168178452Y-89186904D01*
X168254642Y-89148809D01*
X168292738Y-89110714D01*
X168330833Y-89034523D01*
X168330833Y-88958333D01*
X168292738Y-88882142D01*
X168254642Y-88844047D01*
X168178452Y-88805952D01*
X168026071Y-88767857D01*
X167949880Y-88729761D01*
X167911785Y-88691666D01*
X167873690Y-88615476D01*
X167873690Y-88539285D01*
X167911785Y-88463095D01*
X167949880Y-88425000D01*
X168026071Y-88386904D01*
X168216547Y-88386904D01*
X168330833Y-88425000D01*
X168597500Y-88386904D02*
X168787976Y-89186904D01*
X168940357Y-88615476D01*
X169092738Y-89186904D01*
X169283214Y-88386904D01*
D12*
X159170000Y-94910000D02*
X164370000Y-94910000D01*
X159170000Y-89770000D02*
X159170000Y-94910000D01*
X164370000Y-87170000D02*
X164370000Y-94910000D01*
X159170000Y-89770000D02*
X161770000Y-89770000D01*
X161770000Y-89770000D02*
X161770000Y-87170000D01*
X161770000Y-87170000D02*
X164370000Y-87170000D01*
X159170000Y-88500000D02*
X159170000Y-87170000D01*
X159170000Y-87170000D02*
X160500000Y-87170000D01*
M02*
