G04 #@! TF.GenerationSoftware,KiCad,Pcbnew,(5.1.0-0)*
G04 #@! TF.CreationDate,2019-08-13T01:40:22-04:00*
G04 #@! TF.ProjectId,Dell 6pin 2.0mm Front Panel Header Adapter,44656c6c-2036-4706-996e-20322e306d6d,rev?*
G04 #@! TF.SameCoordinates,Original*
G04 #@! TF.FileFunction,Copper,L2,Bot*
G04 #@! TF.FilePolarity,Positive*
%FSLAX46Y46*%
G04 Gerber Fmt 4.6, Leading zero omitted, Abs format (unit mm)*
G04 Created by KiCad (PCBNEW (5.1.0-0)) date 2019-08-13 01:40:22*
%MOMM*%
%LPD*%
G04 APERTURE LIST*
%ADD10R,1.350000X1.350000*%
%ADD11O,1.350000X1.350000*%
%ADD12R,1.700000X1.700000*%
%ADD13O,1.700000X1.700000*%
%ADD14C,0.300000*%
G04 APERTURE END LIST*
D10*
X159500000Y-99000000D03*
D11*
X159500000Y-97000000D03*
X161500000Y-99000000D03*
X161500000Y-97000000D03*
X163500000Y-99000000D03*
X163500000Y-97000000D03*
D12*
X160500000Y-88500000D03*
D13*
X163040000Y-88500000D03*
X160500000Y-91040000D03*
X163040000Y-91040000D03*
X160500000Y-93580000D03*
X163040000Y-93580000D03*
D14*
X163040000Y-93580000D02*
X163040000Y-94780300D01*
X161500000Y-97000000D02*
X161500000Y-95974700D01*
X163040000Y-94780300D02*
X162694400Y-94780300D01*
X162694400Y-94780300D02*
X161500000Y-95974700D01*
X160500000Y-93580000D02*
X160500000Y-94780300D01*
X160500000Y-94780300D02*
X160199900Y-94780300D01*
X160199900Y-94780300D02*
X158457700Y-96522500D01*
X158457700Y-96522500D02*
X158457700Y-97957700D01*
X158457700Y-97957700D02*
X159500000Y-99000000D01*
X160612500Y-93580000D02*
X160500000Y-93580000D01*
X160612500Y-93580000D02*
X161700300Y-93580000D01*
X163040000Y-91040000D02*
X163040000Y-92240300D01*
X161700300Y-93580000D02*
X161700300Y-93206900D01*
X161700300Y-93206900D02*
X162666900Y-92240300D01*
X162666900Y-92240300D02*
X163040000Y-92240300D01*
X163040000Y-88500000D02*
X163040000Y-89700300D01*
X163040000Y-89700300D02*
X163415100Y-89700300D01*
X163415100Y-89700300D02*
X164567700Y-90852900D01*
X164567700Y-90852900D02*
X164567700Y-97932300D01*
X164567700Y-97932300D02*
X163500000Y-99000000D01*
M02*
