G04 #@! TF.GenerationSoftware,KiCad,Pcbnew,(5.1.0-0)*
G04 #@! TF.CreationDate,2019-08-08T23:34:54-04:00*
G04 #@! TF.ProjectId,Dell Optiplex Front Panel LED Indicator Adapter,44656c6c-204f-4707-9469-706c65782046,rev?*
G04 #@! TF.SameCoordinates,Original*
G04 #@! TF.FileFunction,Copper,L2,Bot*
G04 #@! TF.FilePolarity,Positive*
%FSLAX46Y46*%
G04 Gerber Fmt 4.6, Leading zero omitted, Abs format (unit mm)*
G04 Created by KiCad (PCBNEW (5.1.0-0)) date 2019-08-08 23:34:54*
%MOMM*%
%LPD*%
G04 APERTURE LIST*
%ADD10O,1.700000X1.700000*%
%ADD11R,1.700000X1.700000*%
%ADD12C,0.800000*%
%ADD13C,0.250000*%
G04 APERTURE END LIST*
D10*
X153290000Y-82500000D03*
D11*
X150750000Y-82500000D03*
X144500000Y-64750000D03*
D10*
X147040000Y-64750000D03*
X144500000Y-67290000D03*
X147040000Y-67290000D03*
X144500000Y-69830000D03*
X147040000Y-69830000D03*
X144500000Y-72370000D03*
X147040000Y-72370000D03*
X144500000Y-74910000D03*
X147040000Y-74910000D03*
X144500000Y-77450000D03*
X147040000Y-77450000D03*
X144500000Y-79990000D03*
X147040000Y-79990000D03*
X144500000Y-82530000D03*
X147040000Y-82530000D03*
D12*
X153934700Y-70937000D03*
D13*
X147040000Y-79990000D02*
X147040000Y-78814700D01*
X147040000Y-78814700D02*
X147407300Y-78814700D01*
X147407300Y-78814700D02*
X153934700Y-72287300D01*
X153934700Y-72287300D02*
X153934700Y-70937000D01*
X150750000Y-82500000D02*
X149574700Y-82500000D01*
X144500000Y-67290000D02*
X144500000Y-68465300D01*
X144500000Y-68465300D02*
X144132700Y-68465300D01*
X144132700Y-68465300D02*
X143321500Y-69276500D01*
X143321500Y-69276500D02*
X143321500Y-75474700D01*
X143321500Y-75474700D02*
X144121400Y-76274600D01*
X144121400Y-76274600D02*
X145048800Y-76274600D01*
X145048800Y-76274600D02*
X145864600Y-77090400D01*
X145864600Y-77090400D02*
X145864600Y-80515600D01*
X145864600Y-80515600D02*
X146673700Y-81324700D01*
X146673700Y-81324700D02*
X148399400Y-81324700D01*
X148399400Y-81324700D02*
X149574700Y-82500000D01*
X144500000Y-69830000D02*
X144500000Y-71005300D01*
X147040000Y-72957600D02*
X145087700Y-71005300D01*
X145087700Y-71005300D02*
X144500000Y-71005300D01*
X147040000Y-72957600D02*
X147040000Y-73545300D01*
X147040000Y-72370000D02*
X147040000Y-72957600D01*
X144500000Y-74910000D02*
X145675300Y-74910000D01*
X145675300Y-74910000D02*
X145675300Y-74542700D01*
X145675300Y-74542700D02*
X146672700Y-73545300D01*
X146672700Y-73545300D02*
X147040000Y-73545300D01*
M02*
