G04 #@! TF.GenerationSoftware,KiCad,Pcbnew,(5.1.0-0)*
G04 #@! TF.CreationDate,2019-08-08T23:34:54-04:00*
G04 #@! TF.ProjectId,Dell Optiplex Front Panel LED Indicator Adapter,44656c6c-204f-4707-9469-706c65782046,rev?*
G04 #@! TF.SameCoordinates,Original*
G04 #@! TF.FileFunction,Legend,Bot*
G04 #@! TF.FilePolarity,Positive*
%FSLAX46Y46*%
G04 Gerber Fmt 4.6, Leading zero omitted, Abs format (unit mm)*
G04 Created by KiCad (PCBNEW (5.1.0-0)) date 2019-08-08 23:34:54*
%MOMM*%
%LPD*%
G04 APERTURE LIST*
%ADD10C,0.120000*%
%ADD11C,0.150000*%
G04 APERTURE END LIST*
D10*
X151000000Y-75000000D02*
X151000000Y-72000000D01*
D11*
X151452380Y-64476190D02*
X150452380Y-64476190D01*
X151452380Y-65047619D02*
X150880952Y-64619047D01*
X150452380Y-65047619D02*
X151023809Y-64476190D01*
X151404761Y-65857142D02*
X151452380Y-65761904D01*
X151452380Y-65571428D01*
X151404761Y-65476190D01*
X151309523Y-65428571D01*
X150928571Y-65428571D01*
X150833333Y-65476190D01*
X150785714Y-65571428D01*
X150785714Y-65761904D01*
X150833333Y-65857142D01*
X150928571Y-65904761D01*
X151023809Y-65904761D01*
X151119047Y-65428571D01*
X150785714Y-66238095D02*
X151452380Y-66476190D01*
X150785714Y-66714285D02*
X151452380Y-66476190D01*
X151690476Y-66380952D01*
X151738095Y-66333333D01*
X151785714Y-66238095D01*
X151404761Y-67476190D02*
X151452380Y-67380952D01*
X151452380Y-67190476D01*
X151404761Y-67095238D01*
X151309523Y-67047619D01*
X150928571Y-67047619D01*
X150833333Y-67095238D01*
X150785714Y-67190476D01*
X150785714Y-67380952D01*
X150833333Y-67476190D01*
X150928571Y-67523809D01*
X151023809Y-67523809D01*
X151119047Y-67047619D01*
X151452380Y-68380952D02*
X150452380Y-68380952D01*
X151404761Y-68380952D02*
X151452380Y-68285714D01*
X151452380Y-68095238D01*
X151404761Y-68000000D01*
X151357142Y-67952380D01*
X151261904Y-67904761D01*
X150976190Y-67904761D01*
X150880952Y-67952380D01*
X150833333Y-68000000D01*
X150785714Y-68095238D01*
X150785714Y-68285714D01*
X150833333Y-68380952D01*
X151452380Y-69619047D02*
X150452380Y-69619047D01*
X150452380Y-70000000D01*
X150500000Y-70095238D01*
X150547619Y-70142857D01*
X150642857Y-70190476D01*
X150785714Y-70190476D01*
X150880952Y-70142857D01*
X150928571Y-70095238D01*
X150976190Y-70000000D01*
X150976190Y-69619047D01*
X151452380Y-70619047D02*
X150785714Y-70619047D01*
X150452380Y-70619047D02*
X150500000Y-70571428D01*
X150547619Y-70619047D01*
X150500000Y-70666666D01*
X150452380Y-70619047D01*
X150547619Y-70619047D01*
X150785714Y-71095238D02*
X151452380Y-71095238D01*
X150880952Y-71095238D02*
X150833333Y-71142857D01*
X150785714Y-71238095D01*
X150785714Y-71380952D01*
X150833333Y-71476190D01*
X150928571Y-71523809D01*
X151452380Y-71523809D01*
D10*
X149000000Y-75000000D02*
X149500000Y-75500000D01*
X149500000Y-74500000D02*
X149000000Y-75000000D01*
X149000000Y-75000000D02*
X149500000Y-74500000D01*
X149000000Y-75000000D02*
X151000000Y-75000000D01*
D11*
X153833333Y-66761904D02*
X153785714Y-66714285D01*
X153642857Y-66619047D01*
X153547619Y-66571428D01*
X153404761Y-66523809D01*
X153166666Y-66476190D01*
X152976190Y-66476190D01*
X152738095Y-66523809D01*
X152595238Y-66571428D01*
X152500000Y-66619047D01*
X152357142Y-66714285D01*
X152309523Y-66761904D01*
X153452380Y-67142857D02*
X152452380Y-67142857D01*
X153166666Y-67476190D01*
X152452380Y-67809523D01*
X153452380Y-67809523D01*
X153452380Y-68428571D02*
X153404761Y-68333333D01*
X153357142Y-68285714D01*
X153261904Y-68238095D01*
X152976190Y-68238095D01*
X152880952Y-68285714D01*
X152833333Y-68333333D01*
X152785714Y-68428571D01*
X152785714Y-68571428D01*
X152833333Y-68666666D01*
X152880952Y-68714285D01*
X152976190Y-68761904D01*
X153261904Y-68761904D01*
X153357142Y-68714285D01*
X153404761Y-68666666D01*
X153452380Y-68571428D01*
X153452380Y-68428571D01*
X152785714Y-69047619D02*
X152785714Y-69428571D01*
X152452380Y-69190476D02*
X153309523Y-69190476D01*
X153404761Y-69238095D01*
X153452380Y-69333333D01*
X153452380Y-69428571D01*
X153452380Y-69761904D02*
X152452380Y-69761904D01*
X153452380Y-70190476D02*
X152928571Y-70190476D01*
X152833333Y-70142857D01*
X152785714Y-70047619D01*
X152785714Y-69904761D01*
X152833333Y-69809523D01*
X152880952Y-69761904D01*
X153404761Y-71047619D02*
X153452380Y-70952380D01*
X153452380Y-70761904D01*
X153404761Y-70666666D01*
X153309523Y-70619047D01*
X152928571Y-70619047D01*
X152833333Y-70666666D01*
X152785714Y-70761904D01*
X152785714Y-70952380D01*
X152833333Y-71047619D01*
X152928571Y-71095238D01*
X153023809Y-71095238D01*
X153119047Y-70619047D01*
X153452380Y-71523809D02*
X152785714Y-71523809D01*
X152976190Y-71523809D02*
X152880952Y-71571428D01*
X152833333Y-71619047D01*
X152785714Y-71714285D01*
X152785714Y-71809523D01*
X153452380Y-72142857D02*
X152452380Y-72142857D01*
X152833333Y-72142857D02*
X152785714Y-72238095D01*
X152785714Y-72428571D01*
X152833333Y-72523809D01*
X152880952Y-72571428D01*
X152976190Y-72619047D01*
X153261904Y-72619047D01*
X153357142Y-72571428D01*
X153404761Y-72523809D01*
X153452380Y-72428571D01*
X153452380Y-72238095D01*
X153404761Y-72142857D01*
X153452380Y-73190476D02*
X153404761Y-73095238D01*
X153357142Y-73047619D01*
X153261904Y-73000000D01*
X152976190Y-73000000D01*
X152880952Y-73047619D01*
X152833333Y-73095238D01*
X152785714Y-73190476D01*
X152785714Y-73333333D01*
X152833333Y-73428571D01*
X152880952Y-73476190D01*
X152976190Y-73523809D01*
X153261904Y-73523809D01*
X153357142Y-73476190D01*
X153404761Y-73428571D01*
X153452380Y-73333333D01*
X153452380Y-73190476D01*
X153452380Y-74380952D02*
X152928571Y-74380952D01*
X152833333Y-74333333D01*
X152785714Y-74238095D01*
X152785714Y-74047619D01*
X152833333Y-73952380D01*
X153404761Y-74380952D02*
X153452380Y-74285714D01*
X153452380Y-74047619D01*
X153404761Y-73952380D01*
X153309523Y-73904761D01*
X153214285Y-73904761D01*
X153119047Y-73952380D01*
X153071428Y-74047619D01*
X153071428Y-74285714D01*
X153023809Y-74380952D01*
X153452380Y-74857142D02*
X152785714Y-74857142D01*
X152976190Y-74857142D02*
X152880952Y-74904761D01*
X152833333Y-74952380D01*
X152785714Y-75047619D01*
X152785714Y-75142857D01*
X153452380Y-75904761D02*
X152452380Y-75904761D01*
X153404761Y-75904761D02*
X153452380Y-75809523D01*
X153452380Y-75619047D01*
X153404761Y-75523809D01*
X153357142Y-75476190D01*
X153261904Y-75428571D01*
X152976190Y-75428571D01*
X152880952Y-75476190D01*
X152833333Y-75523809D01*
X152785714Y-75619047D01*
X152785714Y-75809523D01*
X152833333Y-75904761D01*
X153404761Y-77095238D02*
X153452380Y-77238095D01*
X153452380Y-77476190D01*
X153404761Y-77571428D01*
X153357142Y-77619047D01*
X153261904Y-77666666D01*
X153166666Y-77666666D01*
X153071428Y-77619047D01*
X153023809Y-77571428D01*
X152976190Y-77476190D01*
X152928571Y-77285714D01*
X152880952Y-77190476D01*
X152833333Y-77142857D01*
X152738095Y-77095238D01*
X152642857Y-77095238D01*
X152547619Y-77142857D01*
X152500000Y-77190476D01*
X152452380Y-77285714D01*
X152452380Y-77523809D01*
X152500000Y-77666666D01*
X153452380Y-78095238D02*
X152785714Y-78095238D01*
X152452380Y-78095238D02*
X152500000Y-78047619D01*
X152547619Y-78095238D01*
X152500000Y-78142857D01*
X152452380Y-78095238D01*
X152547619Y-78095238D01*
X153452380Y-79000000D02*
X152452380Y-79000000D01*
X153404761Y-79000000D02*
X153452380Y-78904761D01*
X153452380Y-78714285D01*
X153404761Y-78619047D01*
X153357142Y-78571428D01*
X153261904Y-78523809D01*
X152976190Y-78523809D01*
X152880952Y-78571428D01*
X152833333Y-78619047D01*
X152785714Y-78714285D01*
X152785714Y-78904761D01*
X152833333Y-79000000D01*
X153404761Y-79857142D02*
X153452380Y-79761904D01*
X153452380Y-79571428D01*
X153404761Y-79476190D01*
X153309523Y-79428571D01*
X152928571Y-79428571D01*
X152833333Y-79476190D01*
X152785714Y-79571428D01*
X152785714Y-79761904D01*
X152833333Y-79857142D01*
X152928571Y-79904761D01*
X153023809Y-79904761D01*
X153119047Y-79428571D01*
X153833333Y-80238095D02*
X153785714Y-80285714D01*
X153642857Y-80380952D01*
X153547619Y-80428571D01*
X153404761Y-80476190D01*
X153166666Y-80523809D01*
X152976190Y-80523809D01*
X152738095Y-80476190D01*
X152595238Y-80428571D01*
X152500000Y-80380952D01*
X152357142Y-80285714D01*
X152309523Y-80238095D01*
X154785714Y-64571428D02*
X155595238Y-64571428D01*
X155690476Y-64523809D01*
X155738095Y-64476190D01*
X155785714Y-64380952D01*
X155785714Y-64238095D01*
X155738095Y-64142857D01*
X155404761Y-64571428D02*
X155452380Y-64476190D01*
X155452380Y-64285714D01*
X155404761Y-64190476D01*
X155357142Y-64142857D01*
X155261904Y-64095238D01*
X154976190Y-64095238D01*
X154880952Y-64142857D01*
X154833333Y-64190476D01*
X154785714Y-64285714D01*
X154785714Y-64476190D01*
X154833333Y-64571428D01*
X155452380Y-65047619D02*
X154785714Y-65047619D01*
X154452380Y-65047619D02*
X154500000Y-65000000D01*
X154547619Y-65047619D01*
X154500000Y-65095238D01*
X154452380Y-65047619D01*
X154547619Y-65047619D01*
X154785714Y-65380952D02*
X154785714Y-65761904D01*
X154452380Y-65523809D02*
X155309523Y-65523809D01*
X155404761Y-65571428D01*
X155452380Y-65666666D01*
X155452380Y-65761904D01*
X155452380Y-66095238D02*
X154452380Y-66095238D01*
X155452380Y-66523809D02*
X154928571Y-66523809D01*
X154833333Y-66476190D01*
X154785714Y-66380952D01*
X154785714Y-66238095D01*
X154833333Y-66142857D01*
X154880952Y-66095238D01*
X154785714Y-67428571D02*
X155452380Y-67428571D01*
X154785714Y-67000000D02*
X155309523Y-67000000D01*
X155404761Y-67047619D01*
X155452380Y-67142857D01*
X155452380Y-67285714D01*
X155404761Y-67380952D01*
X155357142Y-67428571D01*
X155452380Y-67904761D02*
X154452380Y-67904761D01*
X154833333Y-67904761D02*
X154785714Y-68000000D01*
X154785714Y-68190476D01*
X154833333Y-68285714D01*
X154880952Y-68333333D01*
X154976190Y-68380952D01*
X155261904Y-68380952D01*
X155357142Y-68333333D01*
X155404761Y-68285714D01*
X155452380Y-68190476D01*
X155452380Y-68000000D01*
X155404761Y-67904761D01*
X155357142Y-68809523D02*
X155404761Y-68857142D01*
X155452380Y-68809523D01*
X155404761Y-68761904D01*
X155357142Y-68809523D01*
X155452380Y-68809523D01*
X155404761Y-69714285D02*
X155452380Y-69619047D01*
X155452380Y-69428571D01*
X155404761Y-69333333D01*
X155357142Y-69285714D01*
X155261904Y-69238095D01*
X154976190Y-69238095D01*
X154880952Y-69285714D01*
X154833333Y-69333333D01*
X154785714Y-69428571D01*
X154785714Y-69619047D01*
X154833333Y-69714285D01*
X155452380Y-70285714D02*
X155404761Y-70190476D01*
X155357142Y-70142857D01*
X155261904Y-70095238D01*
X154976190Y-70095238D01*
X154880952Y-70142857D01*
X154833333Y-70190476D01*
X154785714Y-70285714D01*
X154785714Y-70428571D01*
X154833333Y-70523809D01*
X154880952Y-70571428D01*
X154976190Y-70619047D01*
X155261904Y-70619047D01*
X155357142Y-70571428D01*
X155404761Y-70523809D01*
X155452380Y-70428571D01*
X155452380Y-70285714D01*
X155452380Y-71047619D02*
X154785714Y-71047619D01*
X154880952Y-71047619D02*
X154833333Y-71095238D01*
X154785714Y-71190476D01*
X154785714Y-71333333D01*
X154833333Y-71428571D01*
X154928571Y-71476190D01*
X155452380Y-71476190D01*
X154928571Y-71476190D02*
X154833333Y-71523809D01*
X154785714Y-71619047D01*
X154785714Y-71761904D01*
X154833333Y-71857142D01*
X154928571Y-71904761D01*
X155452380Y-71904761D01*
X154404761Y-73095238D02*
X155690476Y-72238095D01*
X155452380Y-73428571D02*
X154452380Y-73428571D01*
X155452380Y-73857142D02*
X154928571Y-73857142D01*
X154833333Y-73809523D01*
X154785714Y-73714285D01*
X154785714Y-73571428D01*
X154833333Y-73476190D01*
X154880952Y-73428571D01*
X155452380Y-74761904D02*
X154928571Y-74761904D01*
X154833333Y-74714285D01*
X154785714Y-74619047D01*
X154785714Y-74428571D01*
X154833333Y-74333333D01*
X155404761Y-74761904D02*
X155452380Y-74666666D01*
X155452380Y-74428571D01*
X155404761Y-74333333D01*
X155309523Y-74285714D01*
X155214285Y-74285714D01*
X155119047Y-74333333D01*
X155071428Y-74428571D01*
X155071428Y-74666666D01*
X155023809Y-74761904D01*
X155452380Y-75238095D02*
X154785714Y-75238095D01*
X154976190Y-75238095D02*
X154880952Y-75285714D01*
X154833333Y-75333333D01*
X154785714Y-75428571D01*
X154785714Y-75523809D01*
X155452380Y-75857142D02*
X154452380Y-75857142D01*
X154833333Y-75857142D02*
X154785714Y-75952380D01*
X154785714Y-76142857D01*
X154833333Y-76238095D01*
X154880952Y-76285714D01*
X154976190Y-76333333D01*
X155261904Y-76333333D01*
X155357142Y-76285714D01*
X155404761Y-76238095D01*
X155452380Y-76142857D01*
X155452380Y-75952380D01*
X155404761Y-75857142D01*
X155452380Y-76761904D02*
X154785714Y-76761904D01*
X154452380Y-76761904D02*
X154500000Y-76714285D01*
X154547619Y-76761904D01*
X154500000Y-76809523D01*
X154452380Y-76761904D01*
X154547619Y-76761904D01*
X154785714Y-77238095D02*
X155452380Y-77238095D01*
X154880952Y-77238095D02*
X154833333Y-77285714D01*
X154785714Y-77380952D01*
X154785714Y-77523809D01*
X154833333Y-77619047D01*
X154928571Y-77666666D01*
X155452380Y-77666666D01*
X155452380Y-78142857D02*
X154785714Y-78142857D01*
X154976190Y-78142857D02*
X154880952Y-78190476D01*
X154833333Y-78238095D01*
X154785714Y-78333333D01*
X154785714Y-78428571D01*
X155404761Y-79142857D02*
X155452380Y-79047619D01*
X155452380Y-78857142D01*
X155404761Y-78761904D01*
X155309523Y-78714285D01*
X154928571Y-78714285D01*
X154833333Y-78761904D01*
X154785714Y-78857142D01*
X154785714Y-79047619D01*
X154833333Y-79142857D01*
X154928571Y-79190476D01*
X155023809Y-79190476D01*
X155119047Y-78714285D01*
X154785714Y-79619047D02*
X155785714Y-79619047D01*
X154833333Y-79619047D02*
X154785714Y-79714285D01*
X154785714Y-79904761D01*
X154833333Y-80000000D01*
X154880952Y-80047619D01*
X154976190Y-80095238D01*
X155261904Y-80095238D01*
X155357142Y-80047619D01*
X155404761Y-80000000D01*
X155452380Y-79904761D01*
X155452380Y-79714285D01*
X155404761Y-79619047D01*
X155452380Y-80952380D02*
X154928571Y-80952380D01*
X154833333Y-80904761D01*
X154785714Y-80809523D01*
X154785714Y-80619047D01*
X154833333Y-80523809D01*
X155404761Y-80952380D02*
X155452380Y-80857142D01*
X155452380Y-80619047D01*
X155404761Y-80523809D01*
X155309523Y-80476190D01*
X155214285Y-80476190D01*
X155119047Y-80523809D01*
X155071428Y-80619047D01*
X155071428Y-80857142D01*
X155023809Y-80952380D01*
X155452380Y-81428571D02*
X154785714Y-81428571D01*
X154452380Y-81428571D02*
X154500000Y-81380952D01*
X154547619Y-81428571D01*
X154500000Y-81476190D01*
X154452380Y-81428571D01*
X154547619Y-81428571D01*
X155452380Y-81904761D02*
X154785714Y-81904761D01*
X154976190Y-81904761D02*
X154880952Y-81952380D01*
X154833333Y-82000000D01*
X154785714Y-82095238D01*
X154785714Y-82190476D01*
X155404761Y-82476190D02*
X155452380Y-82571428D01*
X155452380Y-82761904D01*
X155404761Y-82857142D01*
X155309523Y-82904761D01*
X155261904Y-82904761D01*
X155166666Y-82857142D01*
X155119047Y-82761904D01*
X155119047Y-82619047D01*
X155071428Y-82523809D01*
X154976190Y-82476190D01*
X154928571Y-82476190D01*
X154833333Y-82523809D01*
X154785714Y-82619047D01*
X154785714Y-82761904D01*
X154833333Y-82857142D01*
D10*
X148370000Y-63420000D02*
X145770000Y-63420000D01*
X148370000Y-63420000D02*
X148370000Y-83860000D01*
X148370000Y-83860000D02*
X143170000Y-83860000D01*
X143170000Y-66020000D02*
X143170000Y-83860000D01*
X145770000Y-66020000D02*
X143170000Y-66020000D01*
X145770000Y-63420000D02*
X145770000Y-66020000D01*
X143170000Y-63420000D02*
X143170000Y-64750000D01*
X144500000Y-63420000D02*
X143170000Y-63420000D01*
M02*
