M48
; DRILL file {KiCad (5.1.0-0)} date Thursday, August 08, 2019 at 10:33:42 PM
; FORMAT={-:-/ absolute / inch / decimal}
; #@! TF.CreationDate,2019-08-08T22:33:42-04:00
; #@! TF.GenerationSoftware,Kicad,Pcbnew,(5.1.0-0)
; #@! TF.FileFunction,Plated,1,2,PTH
FMAT,2
INCH
T1C0.0394
%
G90
G05
T1
X6.1417Y-3.497
X6.1417Y-3.597
X6.1417Y-3.697
X6.1417Y-3.797
X6.1417Y-3.897
X6.2417Y-3.497
X6.2417Y-3.597
X6.2417Y-3.697
X6.2417Y-3.797
X6.2417Y-3.897
X6.3961Y-3.497
X6.3961Y-3.597
X6.3961Y-3.697
X6.3961Y-3.797
X6.3961Y-3.897
X6.4961Y-3.497
X6.4961Y-3.597
X6.4961Y-3.697
X6.4961Y-3.797
X6.4961Y-3.897
T0
M30
