G04 #@! TF.GenerationSoftware,KiCad,Pcbnew,(5.1.0-0)*
G04 #@! TF.CreationDate,2019-08-08T22:33:38-04:00*
G04 #@! TF.ProjectId,Dell Optiplex USB Header Sense Adapter,44656c6c-204f-4707-9469-706c65782055,rev?*
G04 #@! TF.SameCoordinates,Original*
G04 #@! TF.FileFunction,Soldermask,Bot*
G04 #@! TF.FilePolarity,Negative*
%FSLAX46Y46*%
G04 Gerber Fmt 4.6, Leading zero omitted, Abs format (unit mm)*
G04 Created by KiCad (PCBNEW (5.1.0-0)) date 2019-08-08 22:33:38*
%MOMM*%
%LPD*%
G04 APERTURE LIST*
%ADD10C,0.100000*%
G04 APERTURE END LIST*
D10*
G36*
X165110443Y-98090519D02*
G01*
X165176627Y-98097037D01*
X165346466Y-98148557D01*
X165502991Y-98232222D01*
X165538729Y-98261552D01*
X165640186Y-98344814D01*
X165723448Y-98446271D01*
X165752778Y-98482009D01*
X165836443Y-98638534D01*
X165887963Y-98808373D01*
X165905359Y-98985000D01*
X165887963Y-99161627D01*
X165836443Y-99331466D01*
X165752778Y-99487991D01*
X165723448Y-99523729D01*
X165640186Y-99625186D01*
X165538729Y-99708448D01*
X165502991Y-99737778D01*
X165346466Y-99821443D01*
X165176627Y-99872963D01*
X165110443Y-99879481D01*
X165044260Y-99886000D01*
X164955740Y-99886000D01*
X164889557Y-99879481D01*
X164823373Y-99872963D01*
X164653534Y-99821443D01*
X164497009Y-99737778D01*
X164461271Y-99708448D01*
X164359814Y-99625186D01*
X164276552Y-99523729D01*
X164247222Y-99487991D01*
X164163557Y-99331466D01*
X164112037Y-99161627D01*
X164094641Y-98985000D01*
X164112037Y-98808373D01*
X164163557Y-98638534D01*
X164247222Y-98482009D01*
X164276552Y-98446271D01*
X164359814Y-98344814D01*
X164461271Y-98261552D01*
X164497009Y-98232222D01*
X164653534Y-98148557D01*
X164823373Y-98097037D01*
X164889557Y-98090519D01*
X164955740Y-98084000D01*
X165044260Y-98084000D01*
X165110443Y-98090519D01*
X165110443Y-98090519D01*
G37*
G36*
X162570443Y-98090519D02*
G01*
X162636627Y-98097037D01*
X162806466Y-98148557D01*
X162962991Y-98232222D01*
X162998729Y-98261552D01*
X163100186Y-98344814D01*
X163183448Y-98446271D01*
X163212778Y-98482009D01*
X163296443Y-98638534D01*
X163347963Y-98808373D01*
X163365359Y-98985000D01*
X163347963Y-99161627D01*
X163296443Y-99331466D01*
X163212778Y-99487991D01*
X163183448Y-99523729D01*
X163100186Y-99625186D01*
X162998729Y-99708448D01*
X162962991Y-99737778D01*
X162806466Y-99821443D01*
X162636627Y-99872963D01*
X162570443Y-99879481D01*
X162504260Y-99886000D01*
X162415740Y-99886000D01*
X162349557Y-99879481D01*
X162283373Y-99872963D01*
X162113534Y-99821443D01*
X161957009Y-99737778D01*
X161921271Y-99708448D01*
X161819814Y-99625186D01*
X161736552Y-99523729D01*
X161707222Y-99487991D01*
X161623557Y-99331466D01*
X161572037Y-99161627D01*
X161554641Y-98985000D01*
X161572037Y-98808373D01*
X161623557Y-98638534D01*
X161707222Y-98482009D01*
X161736552Y-98446271D01*
X161819814Y-98344814D01*
X161921271Y-98261552D01*
X161957009Y-98232222D01*
X162113534Y-98148557D01*
X162283373Y-98097037D01*
X162349557Y-98090519D01*
X162415740Y-98084000D01*
X162504260Y-98084000D01*
X162570443Y-98090519D01*
X162570443Y-98090519D01*
G37*
G36*
X158650443Y-98090519D02*
G01*
X158716627Y-98097037D01*
X158886466Y-98148557D01*
X159042991Y-98232222D01*
X159078729Y-98261552D01*
X159180186Y-98344814D01*
X159263448Y-98446271D01*
X159292778Y-98482009D01*
X159376443Y-98638534D01*
X159427963Y-98808373D01*
X159445359Y-98985000D01*
X159427963Y-99161627D01*
X159376443Y-99331466D01*
X159292778Y-99487991D01*
X159263448Y-99523729D01*
X159180186Y-99625186D01*
X159078729Y-99708448D01*
X159042991Y-99737778D01*
X158886466Y-99821443D01*
X158716627Y-99872963D01*
X158650443Y-99879481D01*
X158584260Y-99886000D01*
X158495740Y-99886000D01*
X158429557Y-99879481D01*
X158363373Y-99872963D01*
X158193534Y-99821443D01*
X158037009Y-99737778D01*
X158001271Y-99708448D01*
X157899814Y-99625186D01*
X157816552Y-99523729D01*
X157787222Y-99487991D01*
X157703557Y-99331466D01*
X157652037Y-99161627D01*
X157634641Y-98985000D01*
X157652037Y-98808373D01*
X157703557Y-98638534D01*
X157787222Y-98482009D01*
X157816552Y-98446271D01*
X157899814Y-98344814D01*
X158001271Y-98261552D01*
X158037009Y-98232222D01*
X158193534Y-98148557D01*
X158363373Y-98097037D01*
X158429557Y-98090519D01*
X158495740Y-98084000D01*
X158584260Y-98084000D01*
X158650443Y-98090519D01*
X158650443Y-98090519D01*
G37*
G36*
X156110443Y-98090519D02*
G01*
X156176627Y-98097037D01*
X156346466Y-98148557D01*
X156502991Y-98232222D01*
X156538729Y-98261552D01*
X156640186Y-98344814D01*
X156723448Y-98446271D01*
X156752778Y-98482009D01*
X156836443Y-98638534D01*
X156887963Y-98808373D01*
X156905359Y-98985000D01*
X156887963Y-99161627D01*
X156836443Y-99331466D01*
X156752778Y-99487991D01*
X156723448Y-99523729D01*
X156640186Y-99625186D01*
X156538729Y-99708448D01*
X156502991Y-99737778D01*
X156346466Y-99821443D01*
X156176627Y-99872963D01*
X156110443Y-99879481D01*
X156044260Y-99886000D01*
X155955740Y-99886000D01*
X155889557Y-99879481D01*
X155823373Y-99872963D01*
X155653534Y-99821443D01*
X155497009Y-99737778D01*
X155461271Y-99708448D01*
X155359814Y-99625186D01*
X155276552Y-99523729D01*
X155247222Y-99487991D01*
X155163557Y-99331466D01*
X155112037Y-99161627D01*
X155094641Y-98985000D01*
X155112037Y-98808373D01*
X155163557Y-98638534D01*
X155247222Y-98482009D01*
X155276552Y-98446271D01*
X155359814Y-98344814D01*
X155461271Y-98261552D01*
X155497009Y-98232222D01*
X155653534Y-98148557D01*
X155823373Y-98097037D01*
X155889557Y-98090519D01*
X155955740Y-98084000D01*
X156044260Y-98084000D01*
X156110443Y-98090519D01*
X156110443Y-98090519D01*
G37*
G36*
X165110443Y-95550519D02*
G01*
X165176627Y-95557037D01*
X165346466Y-95608557D01*
X165502991Y-95692222D01*
X165538729Y-95721552D01*
X165640186Y-95804814D01*
X165723448Y-95906271D01*
X165752778Y-95942009D01*
X165836443Y-96098534D01*
X165887963Y-96268373D01*
X165905359Y-96445000D01*
X165887963Y-96621627D01*
X165836443Y-96791466D01*
X165752778Y-96947991D01*
X165723448Y-96983729D01*
X165640186Y-97085186D01*
X165538729Y-97168448D01*
X165502991Y-97197778D01*
X165346466Y-97281443D01*
X165176627Y-97332963D01*
X165110442Y-97339482D01*
X165044260Y-97346000D01*
X164955740Y-97346000D01*
X164889558Y-97339482D01*
X164823373Y-97332963D01*
X164653534Y-97281443D01*
X164497009Y-97197778D01*
X164461271Y-97168448D01*
X164359814Y-97085186D01*
X164276552Y-96983729D01*
X164247222Y-96947991D01*
X164163557Y-96791466D01*
X164112037Y-96621627D01*
X164094641Y-96445000D01*
X164112037Y-96268373D01*
X164163557Y-96098534D01*
X164247222Y-95942009D01*
X164276552Y-95906271D01*
X164359814Y-95804814D01*
X164461271Y-95721552D01*
X164497009Y-95692222D01*
X164653534Y-95608557D01*
X164823373Y-95557037D01*
X164889558Y-95550518D01*
X164955740Y-95544000D01*
X165044260Y-95544000D01*
X165110443Y-95550519D01*
X165110443Y-95550519D01*
G37*
G36*
X158650443Y-95550519D02*
G01*
X158716627Y-95557037D01*
X158886466Y-95608557D01*
X159042991Y-95692222D01*
X159078729Y-95721552D01*
X159180186Y-95804814D01*
X159263448Y-95906271D01*
X159292778Y-95942009D01*
X159376443Y-96098534D01*
X159427963Y-96268373D01*
X159445359Y-96445000D01*
X159427963Y-96621627D01*
X159376443Y-96791466D01*
X159292778Y-96947991D01*
X159263448Y-96983729D01*
X159180186Y-97085186D01*
X159078729Y-97168448D01*
X159042991Y-97197778D01*
X158886466Y-97281443D01*
X158716627Y-97332963D01*
X158650442Y-97339482D01*
X158584260Y-97346000D01*
X158495740Y-97346000D01*
X158429558Y-97339482D01*
X158363373Y-97332963D01*
X158193534Y-97281443D01*
X158037009Y-97197778D01*
X158001271Y-97168448D01*
X157899814Y-97085186D01*
X157816552Y-96983729D01*
X157787222Y-96947991D01*
X157703557Y-96791466D01*
X157652037Y-96621627D01*
X157634641Y-96445000D01*
X157652037Y-96268373D01*
X157703557Y-96098534D01*
X157787222Y-95942009D01*
X157816552Y-95906271D01*
X157899814Y-95804814D01*
X158001271Y-95721552D01*
X158037009Y-95692222D01*
X158193534Y-95608557D01*
X158363373Y-95557037D01*
X158429558Y-95550518D01*
X158495740Y-95544000D01*
X158584260Y-95544000D01*
X158650443Y-95550519D01*
X158650443Y-95550519D01*
G37*
G36*
X156110443Y-95550519D02*
G01*
X156176627Y-95557037D01*
X156346466Y-95608557D01*
X156502991Y-95692222D01*
X156538729Y-95721552D01*
X156640186Y-95804814D01*
X156723448Y-95906271D01*
X156752778Y-95942009D01*
X156836443Y-96098534D01*
X156887963Y-96268373D01*
X156905359Y-96445000D01*
X156887963Y-96621627D01*
X156836443Y-96791466D01*
X156752778Y-96947991D01*
X156723448Y-96983729D01*
X156640186Y-97085186D01*
X156538729Y-97168448D01*
X156502991Y-97197778D01*
X156346466Y-97281443D01*
X156176627Y-97332963D01*
X156110442Y-97339482D01*
X156044260Y-97346000D01*
X155955740Y-97346000D01*
X155889558Y-97339482D01*
X155823373Y-97332963D01*
X155653534Y-97281443D01*
X155497009Y-97197778D01*
X155461271Y-97168448D01*
X155359814Y-97085186D01*
X155276552Y-96983729D01*
X155247222Y-96947991D01*
X155163557Y-96791466D01*
X155112037Y-96621627D01*
X155094641Y-96445000D01*
X155112037Y-96268373D01*
X155163557Y-96098534D01*
X155247222Y-95942009D01*
X155276552Y-95906271D01*
X155359814Y-95804814D01*
X155461271Y-95721552D01*
X155497009Y-95692222D01*
X155653534Y-95608557D01*
X155823373Y-95557037D01*
X155889558Y-95550518D01*
X155955740Y-95544000D01*
X156044260Y-95544000D01*
X156110443Y-95550519D01*
X156110443Y-95550519D01*
G37*
G36*
X162570443Y-95550519D02*
G01*
X162636627Y-95557037D01*
X162806466Y-95608557D01*
X162962991Y-95692222D01*
X162998729Y-95721552D01*
X163100186Y-95804814D01*
X163183448Y-95906271D01*
X163212778Y-95942009D01*
X163296443Y-96098534D01*
X163347963Y-96268373D01*
X163365359Y-96445000D01*
X163347963Y-96621627D01*
X163296443Y-96791466D01*
X163212778Y-96947991D01*
X163183448Y-96983729D01*
X163100186Y-97085186D01*
X162998729Y-97168448D01*
X162962991Y-97197778D01*
X162806466Y-97281443D01*
X162636627Y-97332963D01*
X162570442Y-97339482D01*
X162504260Y-97346000D01*
X162415740Y-97346000D01*
X162349558Y-97339482D01*
X162283373Y-97332963D01*
X162113534Y-97281443D01*
X161957009Y-97197778D01*
X161921271Y-97168448D01*
X161819814Y-97085186D01*
X161736552Y-96983729D01*
X161707222Y-96947991D01*
X161623557Y-96791466D01*
X161572037Y-96621627D01*
X161554641Y-96445000D01*
X161572037Y-96268373D01*
X161623557Y-96098534D01*
X161707222Y-95942009D01*
X161736552Y-95906271D01*
X161819814Y-95804814D01*
X161921271Y-95721552D01*
X161957009Y-95692222D01*
X162113534Y-95608557D01*
X162283373Y-95557037D01*
X162349558Y-95550518D01*
X162415740Y-95544000D01*
X162504260Y-95544000D01*
X162570443Y-95550519D01*
X162570443Y-95550519D01*
G37*
G36*
X162570442Y-93010518D02*
G01*
X162636627Y-93017037D01*
X162806466Y-93068557D01*
X162962991Y-93152222D01*
X162998729Y-93181552D01*
X163100186Y-93264814D01*
X163183448Y-93366271D01*
X163212778Y-93402009D01*
X163296443Y-93558534D01*
X163347963Y-93728373D01*
X163365359Y-93905000D01*
X163347963Y-94081627D01*
X163296443Y-94251466D01*
X163212778Y-94407991D01*
X163183448Y-94443729D01*
X163100186Y-94545186D01*
X162998729Y-94628448D01*
X162962991Y-94657778D01*
X162806466Y-94741443D01*
X162636627Y-94792963D01*
X162570443Y-94799481D01*
X162504260Y-94806000D01*
X162415740Y-94806000D01*
X162349557Y-94799481D01*
X162283373Y-94792963D01*
X162113534Y-94741443D01*
X161957009Y-94657778D01*
X161921271Y-94628448D01*
X161819814Y-94545186D01*
X161736552Y-94443729D01*
X161707222Y-94407991D01*
X161623557Y-94251466D01*
X161572037Y-94081627D01*
X161554641Y-93905000D01*
X161572037Y-93728373D01*
X161623557Y-93558534D01*
X161707222Y-93402009D01*
X161736552Y-93366271D01*
X161819814Y-93264814D01*
X161921271Y-93181552D01*
X161957009Y-93152222D01*
X162113534Y-93068557D01*
X162283373Y-93017037D01*
X162349558Y-93010518D01*
X162415740Y-93004000D01*
X162504260Y-93004000D01*
X162570442Y-93010518D01*
X162570442Y-93010518D01*
G37*
G36*
X165110442Y-93010518D02*
G01*
X165176627Y-93017037D01*
X165346466Y-93068557D01*
X165502991Y-93152222D01*
X165538729Y-93181552D01*
X165640186Y-93264814D01*
X165723448Y-93366271D01*
X165752778Y-93402009D01*
X165836443Y-93558534D01*
X165887963Y-93728373D01*
X165905359Y-93905000D01*
X165887963Y-94081627D01*
X165836443Y-94251466D01*
X165752778Y-94407991D01*
X165723448Y-94443729D01*
X165640186Y-94545186D01*
X165538729Y-94628448D01*
X165502991Y-94657778D01*
X165346466Y-94741443D01*
X165176627Y-94792963D01*
X165110443Y-94799481D01*
X165044260Y-94806000D01*
X164955740Y-94806000D01*
X164889557Y-94799481D01*
X164823373Y-94792963D01*
X164653534Y-94741443D01*
X164497009Y-94657778D01*
X164461271Y-94628448D01*
X164359814Y-94545186D01*
X164276552Y-94443729D01*
X164247222Y-94407991D01*
X164163557Y-94251466D01*
X164112037Y-94081627D01*
X164094641Y-93905000D01*
X164112037Y-93728373D01*
X164163557Y-93558534D01*
X164247222Y-93402009D01*
X164276552Y-93366271D01*
X164359814Y-93264814D01*
X164461271Y-93181552D01*
X164497009Y-93152222D01*
X164653534Y-93068557D01*
X164823373Y-93017037D01*
X164889558Y-93010518D01*
X164955740Y-93004000D01*
X165044260Y-93004000D01*
X165110442Y-93010518D01*
X165110442Y-93010518D01*
G37*
G36*
X156110442Y-93010518D02*
G01*
X156176627Y-93017037D01*
X156346466Y-93068557D01*
X156502991Y-93152222D01*
X156538729Y-93181552D01*
X156640186Y-93264814D01*
X156723448Y-93366271D01*
X156752778Y-93402009D01*
X156836443Y-93558534D01*
X156887963Y-93728373D01*
X156905359Y-93905000D01*
X156887963Y-94081627D01*
X156836443Y-94251466D01*
X156752778Y-94407991D01*
X156723448Y-94443729D01*
X156640186Y-94545186D01*
X156538729Y-94628448D01*
X156502991Y-94657778D01*
X156346466Y-94741443D01*
X156176627Y-94792963D01*
X156110443Y-94799481D01*
X156044260Y-94806000D01*
X155955740Y-94806000D01*
X155889557Y-94799481D01*
X155823373Y-94792963D01*
X155653534Y-94741443D01*
X155497009Y-94657778D01*
X155461271Y-94628448D01*
X155359814Y-94545186D01*
X155276552Y-94443729D01*
X155247222Y-94407991D01*
X155163557Y-94251466D01*
X155112037Y-94081627D01*
X155094641Y-93905000D01*
X155112037Y-93728373D01*
X155163557Y-93558534D01*
X155247222Y-93402009D01*
X155276552Y-93366271D01*
X155359814Y-93264814D01*
X155461271Y-93181552D01*
X155497009Y-93152222D01*
X155653534Y-93068557D01*
X155823373Y-93017037D01*
X155889558Y-93010518D01*
X155955740Y-93004000D01*
X156044260Y-93004000D01*
X156110442Y-93010518D01*
X156110442Y-93010518D01*
G37*
G36*
X158650442Y-93010518D02*
G01*
X158716627Y-93017037D01*
X158886466Y-93068557D01*
X159042991Y-93152222D01*
X159078729Y-93181552D01*
X159180186Y-93264814D01*
X159263448Y-93366271D01*
X159292778Y-93402009D01*
X159376443Y-93558534D01*
X159427963Y-93728373D01*
X159445359Y-93905000D01*
X159427963Y-94081627D01*
X159376443Y-94251466D01*
X159292778Y-94407991D01*
X159263448Y-94443729D01*
X159180186Y-94545186D01*
X159078729Y-94628448D01*
X159042991Y-94657778D01*
X158886466Y-94741443D01*
X158716627Y-94792963D01*
X158650443Y-94799481D01*
X158584260Y-94806000D01*
X158495740Y-94806000D01*
X158429557Y-94799481D01*
X158363373Y-94792963D01*
X158193534Y-94741443D01*
X158037009Y-94657778D01*
X158001271Y-94628448D01*
X157899814Y-94545186D01*
X157816552Y-94443729D01*
X157787222Y-94407991D01*
X157703557Y-94251466D01*
X157652037Y-94081627D01*
X157634641Y-93905000D01*
X157652037Y-93728373D01*
X157703557Y-93558534D01*
X157787222Y-93402009D01*
X157816552Y-93366271D01*
X157899814Y-93264814D01*
X158001271Y-93181552D01*
X158037009Y-93152222D01*
X158193534Y-93068557D01*
X158363373Y-93017037D01*
X158429558Y-93010518D01*
X158495740Y-93004000D01*
X158584260Y-93004000D01*
X158650442Y-93010518D01*
X158650442Y-93010518D01*
G37*
G36*
X156110442Y-90470518D02*
G01*
X156176627Y-90477037D01*
X156346466Y-90528557D01*
X156502991Y-90612222D01*
X156538729Y-90641552D01*
X156640186Y-90724814D01*
X156723448Y-90826271D01*
X156752778Y-90862009D01*
X156836443Y-91018534D01*
X156887963Y-91188373D01*
X156905359Y-91365000D01*
X156887963Y-91541627D01*
X156836443Y-91711466D01*
X156752778Y-91867991D01*
X156723448Y-91903729D01*
X156640186Y-92005186D01*
X156538729Y-92088448D01*
X156502991Y-92117778D01*
X156346466Y-92201443D01*
X156176627Y-92252963D01*
X156110442Y-92259482D01*
X156044260Y-92266000D01*
X155955740Y-92266000D01*
X155889558Y-92259482D01*
X155823373Y-92252963D01*
X155653534Y-92201443D01*
X155497009Y-92117778D01*
X155461271Y-92088448D01*
X155359814Y-92005186D01*
X155276552Y-91903729D01*
X155247222Y-91867991D01*
X155163557Y-91711466D01*
X155112037Y-91541627D01*
X155094641Y-91365000D01*
X155112037Y-91188373D01*
X155163557Y-91018534D01*
X155247222Y-90862009D01*
X155276552Y-90826271D01*
X155359814Y-90724814D01*
X155461271Y-90641552D01*
X155497009Y-90612222D01*
X155653534Y-90528557D01*
X155823373Y-90477037D01*
X155889558Y-90470518D01*
X155955740Y-90464000D01*
X156044260Y-90464000D01*
X156110442Y-90470518D01*
X156110442Y-90470518D01*
G37*
G36*
X162570442Y-90470518D02*
G01*
X162636627Y-90477037D01*
X162806466Y-90528557D01*
X162962991Y-90612222D01*
X162998729Y-90641552D01*
X163100186Y-90724814D01*
X163183448Y-90826271D01*
X163212778Y-90862009D01*
X163296443Y-91018534D01*
X163347963Y-91188373D01*
X163365359Y-91365000D01*
X163347963Y-91541627D01*
X163296443Y-91711466D01*
X163212778Y-91867991D01*
X163183448Y-91903729D01*
X163100186Y-92005186D01*
X162998729Y-92088448D01*
X162962991Y-92117778D01*
X162806466Y-92201443D01*
X162636627Y-92252963D01*
X162570442Y-92259482D01*
X162504260Y-92266000D01*
X162415740Y-92266000D01*
X162349558Y-92259482D01*
X162283373Y-92252963D01*
X162113534Y-92201443D01*
X161957009Y-92117778D01*
X161921271Y-92088448D01*
X161819814Y-92005186D01*
X161736552Y-91903729D01*
X161707222Y-91867991D01*
X161623557Y-91711466D01*
X161572037Y-91541627D01*
X161554641Y-91365000D01*
X161572037Y-91188373D01*
X161623557Y-91018534D01*
X161707222Y-90862009D01*
X161736552Y-90826271D01*
X161819814Y-90724814D01*
X161921271Y-90641552D01*
X161957009Y-90612222D01*
X162113534Y-90528557D01*
X162283373Y-90477037D01*
X162349558Y-90470518D01*
X162415740Y-90464000D01*
X162504260Y-90464000D01*
X162570442Y-90470518D01*
X162570442Y-90470518D01*
G37*
G36*
X165110442Y-90470518D02*
G01*
X165176627Y-90477037D01*
X165346466Y-90528557D01*
X165502991Y-90612222D01*
X165538729Y-90641552D01*
X165640186Y-90724814D01*
X165723448Y-90826271D01*
X165752778Y-90862009D01*
X165836443Y-91018534D01*
X165887963Y-91188373D01*
X165905359Y-91365000D01*
X165887963Y-91541627D01*
X165836443Y-91711466D01*
X165752778Y-91867991D01*
X165723448Y-91903729D01*
X165640186Y-92005186D01*
X165538729Y-92088448D01*
X165502991Y-92117778D01*
X165346466Y-92201443D01*
X165176627Y-92252963D01*
X165110442Y-92259482D01*
X165044260Y-92266000D01*
X164955740Y-92266000D01*
X164889558Y-92259482D01*
X164823373Y-92252963D01*
X164653534Y-92201443D01*
X164497009Y-92117778D01*
X164461271Y-92088448D01*
X164359814Y-92005186D01*
X164276552Y-91903729D01*
X164247222Y-91867991D01*
X164163557Y-91711466D01*
X164112037Y-91541627D01*
X164094641Y-91365000D01*
X164112037Y-91188373D01*
X164163557Y-91018534D01*
X164247222Y-90862009D01*
X164276552Y-90826271D01*
X164359814Y-90724814D01*
X164461271Y-90641552D01*
X164497009Y-90612222D01*
X164653534Y-90528557D01*
X164823373Y-90477037D01*
X164889558Y-90470518D01*
X164955740Y-90464000D01*
X165044260Y-90464000D01*
X165110442Y-90470518D01*
X165110442Y-90470518D01*
G37*
G36*
X158650442Y-90470518D02*
G01*
X158716627Y-90477037D01*
X158886466Y-90528557D01*
X159042991Y-90612222D01*
X159078729Y-90641552D01*
X159180186Y-90724814D01*
X159263448Y-90826271D01*
X159292778Y-90862009D01*
X159376443Y-91018534D01*
X159427963Y-91188373D01*
X159445359Y-91365000D01*
X159427963Y-91541627D01*
X159376443Y-91711466D01*
X159292778Y-91867991D01*
X159263448Y-91903729D01*
X159180186Y-92005186D01*
X159078729Y-92088448D01*
X159042991Y-92117778D01*
X158886466Y-92201443D01*
X158716627Y-92252963D01*
X158650442Y-92259482D01*
X158584260Y-92266000D01*
X158495740Y-92266000D01*
X158429558Y-92259482D01*
X158363373Y-92252963D01*
X158193534Y-92201443D01*
X158037009Y-92117778D01*
X158001271Y-92088448D01*
X157899814Y-92005186D01*
X157816552Y-91903729D01*
X157787222Y-91867991D01*
X157703557Y-91711466D01*
X157652037Y-91541627D01*
X157634641Y-91365000D01*
X157652037Y-91188373D01*
X157703557Y-91018534D01*
X157787222Y-90862009D01*
X157816552Y-90826271D01*
X157899814Y-90724814D01*
X158001271Y-90641552D01*
X158037009Y-90612222D01*
X158193534Y-90528557D01*
X158363373Y-90477037D01*
X158429558Y-90470518D01*
X158495740Y-90464000D01*
X158584260Y-90464000D01*
X158650442Y-90470518D01*
X158650442Y-90470518D01*
G37*
G36*
X163361000Y-89726000D02*
G01*
X161559000Y-89726000D01*
X161559000Y-87924000D01*
X163361000Y-87924000D01*
X163361000Y-89726000D01*
X163361000Y-89726000D01*
G37*
G36*
X158650443Y-87930519D02*
G01*
X158716627Y-87937037D01*
X158886466Y-87988557D01*
X159042991Y-88072222D01*
X159078729Y-88101552D01*
X159180186Y-88184814D01*
X159263448Y-88286271D01*
X159292778Y-88322009D01*
X159376443Y-88478534D01*
X159427963Y-88648373D01*
X159445359Y-88825000D01*
X159427963Y-89001627D01*
X159376443Y-89171466D01*
X159292778Y-89327991D01*
X159263448Y-89363729D01*
X159180186Y-89465186D01*
X159078729Y-89548448D01*
X159042991Y-89577778D01*
X158886466Y-89661443D01*
X158716627Y-89712963D01*
X158650442Y-89719482D01*
X158584260Y-89726000D01*
X158495740Y-89726000D01*
X158429558Y-89719482D01*
X158363373Y-89712963D01*
X158193534Y-89661443D01*
X158037009Y-89577778D01*
X158001271Y-89548448D01*
X157899814Y-89465186D01*
X157816552Y-89363729D01*
X157787222Y-89327991D01*
X157703557Y-89171466D01*
X157652037Y-89001627D01*
X157634641Y-88825000D01*
X157652037Y-88648373D01*
X157703557Y-88478534D01*
X157787222Y-88322009D01*
X157816552Y-88286271D01*
X157899814Y-88184814D01*
X158001271Y-88101552D01*
X158037009Y-88072222D01*
X158193534Y-87988557D01*
X158363373Y-87937037D01*
X158429557Y-87930519D01*
X158495740Y-87924000D01*
X158584260Y-87924000D01*
X158650443Y-87930519D01*
X158650443Y-87930519D01*
G37*
G36*
X156901000Y-89726000D02*
G01*
X155099000Y-89726000D01*
X155099000Y-87924000D01*
X156901000Y-87924000D01*
X156901000Y-89726000D01*
X156901000Y-89726000D01*
G37*
G36*
X165110443Y-87930519D02*
G01*
X165176627Y-87937037D01*
X165346466Y-87988557D01*
X165502991Y-88072222D01*
X165538729Y-88101552D01*
X165640186Y-88184814D01*
X165723448Y-88286271D01*
X165752778Y-88322009D01*
X165836443Y-88478534D01*
X165887963Y-88648373D01*
X165905359Y-88825000D01*
X165887963Y-89001627D01*
X165836443Y-89171466D01*
X165752778Y-89327991D01*
X165723448Y-89363729D01*
X165640186Y-89465186D01*
X165538729Y-89548448D01*
X165502991Y-89577778D01*
X165346466Y-89661443D01*
X165176627Y-89712963D01*
X165110442Y-89719482D01*
X165044260Y-89726000D01*
X164955740Y-89726000D01*
X164889558Y-89719482D01*
X164823373Y-89712963D01*
X164653534Y-89661443D01*
X164497009Y-89577778D01*
X164461271Y-89548448D01*
X164359814Y-89465186D01*
X164276552Y-89363729D01*
X164247222Y-89327991D01*
X164163557Y-89171466D01*
X164112037Y-89001627D01*
X164094641Y-88825000D01*
X164112037Y-88648373D01*
X164163557Y-88478534D01*
X164247222Y-88322009D01*
X164276552Y-88286271D01*
X164359814Y-88184814D01*
X164461271Y-88101552D01*
X164497009Y-88072222D01*
X164653534Y-87988557D01*
X164823373Y-87937037D01*
X164889557Y-87930519D01*
X164955740Y-87924000D01*
X165044260Y-87924000D01*
X165110443Y-87930519D01*
X165110443Y-87930519D01*
G37*
M02*
