G04 #@! TF.GenerationSoftware,KiCad,Pcbnew,(5.1.0-0)*
G04 #@! TF.CreationDate,2019-08-08T22:33:38-04:00*
G04 #@! TF.ProjectId,Dell Optiplex USB Header Sense Adapter,44656c6c-204f-4707-9469-706c65782055,rev?*
G04 #@! TF.SameCoordinates,Original*
G04 #@! TF.FileFunction,Legend,Top*
G04 #@! TF.FilePolarity,Positive*
%FSLAX46Y46*%
G04 Gerber Fmt 4.6, Leading zero omitted, Abs format (unit mm)*
G04 Created by KiCad (PCBNEW (5.1.0-0)) date 2019-08-08 22:33:38*
%MOMM*%
%LPD*%
G04 APERTURE LIST*
%ADD10C,0.125000*%
%ADD11C,0.120000*%
%ADD12C,0.150000*%
G04 APERTURE END LIST*
D10*
X157523809Y-91059523D02*
X157119047Y-91059523D01*
X157071428Y-91083333D01*
X157047619Y-91107142D01*
X157023809Y-91154761D01*
X157023809Y-91250000D01*
X157047619Y-91297619D01*
X157071428Y-91321428D01*
X157119047Y-91345238D01*
X157523809Y-91345238D01*
X157047619Y-91559523D02*
X157023809Y-91630952D01*
X157023809Y-91750000D01*
X157047619Y-91797619D01*
X157071428Y-91821428D01*
X157119047Y-91845238D01*
X157166666Y-91845238D01*
X157214285Y-91821428D01*
X157238095Y-91797619D01*
X157261904Y-91750000D01*
X157285714Y-91654761D01*
X157309523Y-91607142D01*
X157333333Y-91583333D01*
X157380952Y-91559523D01*
X157428571Y-91559523D01*
X157476190Y-91583333D01*
X157500000Y-91607142D01*
X157523809Y-91654761D01*
X157523809Y-91773809D01*
X157500000Y-91845238D01*
X157285714Y-92226190D02*
X157261904Y-92297619D01*
X157238095Y-92321428D01*
X157190476Y-92345238D01*
X157119047Y-92345238D01*
X157071428Y-92321428D01*
X157047619Y-92297619D01*
X157023809Y-92250000D01*
X157023809Y-92059523D01*
X157523809Y-92059523D01*
X157523809Y-92226190D01*
X157500000Y-92273809D01*
X157476190Y-92297619D01*
X157428571Y-92321428D01*
X157380952Y-92321428D01*
X157333333Y-92297619D01*
X157309523Y-92273809D01*
X157285714Y-92226190D01*
X157285714Y-92059523D01*
X157023809Y-92940476D02*
X157523809Y-92940476D01*
X157285714Y-92940476D02*
X157285714Y-93226190D01*
X157023809Y-93226190D02*
X157523809Y-93226190D01*
X157047619Y-93654761D02*
X157023809Y-93607142D01*
X157023809Y-93511904D01*
X157047619Y-93464285D01*
X157095238Y-93440476D01*
X157285714Y-93440476D01*
X157333333Y-93464285D01*
X157357142Y-93511904D01*
X157357142Y-93607142D01*
X157333333Y-93654761D01*
X157285714Y-93678571D01*
X157238095Y-93678571D01*
X157190476Y-93440476D01*
X157023809Y-94107142D02*
X157285714Y-94107142D01*
X157333333Y-94083333D01*
X157357142Y-94035714D01*
X157357142Y-93940476D01*
X157333333Y-93892857D01*
X157047619Y-94107142D02*
X157023809Y-94059523D01*
X157023809Y-93940476D01*
X157047619Y-93892857D01*
X157095238Y-93869047D01*
X157142857Y-93869047D01*
X157190476Y-93892857D01*
X157214285Y-93940476D01*
X157214285Y-94059523D01*
X157238095Y-94107142D01*
X157023809Y-94559523D02*
X157523809Y-94559523D01*
X157047619Y-94559523D02*
X157023809Y-94511904D01*
X157023809Y-94416666D01*
X157047619Y-94369047D01*
X157071428Y-94345238D01*
X157119047Y-94321428D01*
X157261904Y-94321428D01*
X157309523Y-94345238D01*
X157333333Y-94369047D01*
X157357142Y-94416666D01*
X157357142Y-94511904D01*
X157333333Y-94559523D01*
X157047619Y-94988095D02*
X157023809Y-94940476D01*
X157023809Y-94845238D01*
X157047619Y-94797619D01*
X157095238Y-94773809D01*
X157285714Y-94773809D01*
X157333333Y-94797619D01*
X157357142Y-94845238D01*
X157357142Y-94940476D01*
X157333333Y-94988095D01*
X157285714Y-95011904D01*
X157238095Y-95011904D01*
X157190476Y-94773809D01*
X157023809Y-95226190D02*
X157357142Y-95226190D01*
X157261904Y-95226190D02*
X157309523Y-95250000D01*
X157333333Y-95273809D01*
X157357142Y-95321428D01*
X157357142Y-95369047D01*
X157523809Y-96011904D02*
X157523809Y-96107142D01*
X157500000Y-96154761D01*
X157452380Y-96202380D01*
X157357142Y-96226190D01*
X157190476Y-96226190D01*
X157095238Y-96202380D01*
X157047619Y-96154761D01*
X157023809Y-96107142D01*
X157023809Y-96011904D01*
X157047619Y-95964285D01*
X157095238Y-95916666D01*
X157190476Y-95892857D01*
X157357142Y-95892857D01*
X157452380Y-95916666D01*
X157500000Y-95964285D01*
X157523809Y-96011904D01*
X157357142Y-96654761D02*
X157023809Y-96654761D01*
X157357142Y-96440476D02*
X157095238Y-96440476D01*
X157047619Y-96464285D01*
X157023809Y-96511904D01*
X157023809Y-96583333D01*
X157047619Y-96630952D01*
X157071428Y-96654761D01*
X157357142Y-96821428D02*
X157357142Y-97011904D01*
X157523809Y-96892857D02*
X157095238Y-96892857D01*
X157047619Y-96916666D01*
X157023809Y-96964285D01*
X157023809Y-97011904D01*
X164619047Y-100500000D02*
X164571428Y-100476190D01*
X164500000Y-100476190D01*
X164428571Y-100500000D01*
X164380952Y-100547619D01*
X164357142Y-100595238D01*
X164333333Y-100690476D01*
X164333333Y-100761904D01*
X164357142Y-100857142D01*
X164380952Y-100904761D01*
X164428571Y-100952380D01*
X164500000Y-100976190D01*
X164547619Y-100976190D01*
X164619047Y-100952380D01*
X164642857Y-100928571D01*
X164642857Y-100761904D01*
X164547619Y-100761904D01*
X164857142Y-100976190D02*
X164857142Y-100476190D01*
X165142857Y-100976190D01*
X165142857Y-100476190D01*
X165380952Y-100976190D02*
X165380952Y-100476190D01*
X165500000Y-100476190D01*
X165571428Y-100500000D01*
X165619047Y-100547619D01*
X165642857Y-100595238D01*
X165666666Y-100690476D01*
X165666666Y-100761904D01*
X165642857Y-100857142D01*
X165619047Y-100904761D01*
X165571428Y-100952380D01*
X165500000Y-100976190D01*
X165380952Y-100976190D01*
X158119047Y-100500000D02*
X158071428Y-100476190D01*
X158000000Y-100476190D01*
X157928571Y-100500000D01*
X157880952Y-100547619D01*
X157857142Y-100595238D01*
X157833333Y-100690476D01*
X157833333Y-100761904D01*
X157857142Y-100857142D01*
X157880952Y-100904761D01*
X157928571Y-100952380D01*
X158000000Y-100976190D01*
X158047619Y-100976190D01*
X158119047Y-100952380D01*
X158142857Y-100928571D01*
X158142857Y-100761904D01*
X158047619Y-100761904D01*
X158357142Y-100976190D02*
X158357142Y-100476190D01*
X158642857Y-100976190D01*
X158642857Y-100476190D01*
X158880952Y-100976190D02*
X158880952Y-100476190D01*
X159000000Y-100476190D01*
X159071428Y-100500000D01*
X159119047Y-100547619D01*
X159142857Y-100595238D01*
X159166666Y-100690476D01*
X159166666Y-100761904D01*
X159142857Y-100857142D01*
X159119047Y-100904761D01*
X159071428Y-100952380D01*
X159000000Y-100976190D01*
X158880952Y-100976190D01*
D11*
X154500000Y-97750000D02*
X154500000Y-87500000D01*
X157250000Y-97750000D02*
X154500000Y-97750000D01*
X157250000Y-100250000D02*
X157250000Y-97750000D01*
X160000000Y-100250000D02*
X157250000Y-100250000D01*
X160000000Y-87500000D02*
X160000000Y-100250000D01*
X154500000Y-87500000D02*
X160000000Y-87500000D01*
X161130000Y-100315000D02*
X166330000Y-100315000D01*
X161130000Y-90095000D02*
X161130000Y-100315000D01*
X166330000Y-87495000D02*
X166330000Y-100315000D01*
X161130000Y-90095000D02*
X163730000Y-90095000D01*
X163730000Y-90095000D02*
X163730000Y-87495000D01*
X163730000Y-87495000D02*
X166330000Y-87495000D01*
X161130000Y-88825000D02*
X161130000Y-87495000D01*
X161130000Y-87495000D02*
X162460000Y-87495000D01*
D12*
X163416666Y-85702379D02*
X163416666Y-86416665D01*
X163369047Y-86559522D01*
X163273809Y-86654760D01*
X163130952Y-86702379D01*
X163035714Y-86702379D01*
X164416666Y-86702379D02*
X163845238Y-86702379D01*
X164130952Y-86702379D02*
X164130952Y-85702379D01*
X164035714Y-85845237D01*
X163940476Y-85940475D01*
X163845238Y-85988094D01*
M02*
